<svg width="32" height="32" viewBox="0 0 32 32" fill="none" xmlns="http://www.w3.org/2000/svg">
  <!-- Background Circle -->
  <circle cx="16" cy="16" r="16" fill="url(#gradient)" />
  
  <!-- Factory/Gear Icon -->
  <g transform="translate(8, 8)">
    <!-- Main Gear -->
    <path d="M8 1.5L9.4 5.5L13.5 4L12 8L16 8L14.5 12L10.5 13.5L12.5 9.4L8 10.5L6.6 6.5L2.5 8L4 4L0 4L1.5 0L5.5 1.5L3.5 5.3L8 4V1.5Z" fill="white" opacity="0.9"/>
    
    <!-- Inner Circle -->
    <circle cx="8" cy="8" r="2.5" fill="white"/>
    
    <!-- Center Dot -->
    <circle cx="8" cy="8" r="1" fill="url(#gradient)"/>
    
    <!-- Token Symbols -->
    <circle cx="4" cy="4" r="1.2" fill="#FFD700" opacity="0.8"/>
    <circle cx="12" cy="4" r="1.2" fill="#FF6B6B" opacity="0.8"/>
    <circle cx="4" cy="12" r="1.2" fill="#4ECDC4" opacity="0.8"/>
    <circle cx="12" cy="12" r="1.2" fill="#45B7D1" opacity="0.8"/>
  </g>
  
  <!-- Gradient Definitions -->
  <defs>
    <linearGradient id="gradient" x1="0%" y1="0%" x2="100%" y2="100%">
      <stop offset="0%" style="stop-color:#667eea;stop-opacity:1" />
      <stop offset="100%" style="stop-color:#764ba2;stop-opacity:1" />
    </linearGradient>
  </defs>
</svg>
